<?xml version="1.0" ?><svg height="512px" version="1.1" viewBox="0 0 512 512" width="512px" xmlns="http://www.w3.org/2000/svg" xmlns:xlink="http://www.w3.org/1999/xlink"><title/><desc/><defs/><g fill="none" fill-rule="evenodd" id="SVG" stroke="none" stroke-width="1"><g id="Kiwi"><g><path d="M495.775624,255.384541 C495.775624,388.107172 388.165271,495.700583 255.421741,495.700583 C122.663153,495.700583 15.0528,388.107172 15.0528,255.384541 C15.0528,122.661909 122.663153,15.0684979 255.421741,15.0684979 C388.165271,15.0684979 495.775624,122.661909 495.775624,255.384541" fill="#8A7459" id="Fill-1"/><path d="M409.598494,71.1131321 C444.550024,112.849619 465.662494,166.571043 465.662494,225.276152 C465.662494,357.998783 358.052141,465.592195 225.293553,465.592195 C166.594259,465.592195 112.849318,444.498104 71.1213176,409.537021 C115.213553,462.17438 181.366965,495.7051 255.4112,495.7051 C388.169788,495.7051 495.780141,388.111689 495.780141,255.389058 C495.780141,181.356479 462.244141,115.198426 409.598494,71.1131321" fill="#755333" id="Fill-3"/><path d="M255.418729,30.1129055 C131.183435,30.1129055 30.1236706,131.171817 30.1236706,255.387552 C30.1236706,379.588231 131.183435,480.647142 255.418729,480.647142 C379.654024,480.647142 480.713788,379.588231 480.713788,255.387552 C480.713788,131.171817 379.654024,30.1129055 255.418729,30.1129055 M255.418729,510.760047 C114.573553,510.760047 0.00602352941,396.195498 0.00602352941,255.387552 C0.00602352941,114.564549 114.573553,0 255.418729,0 C396.248847,0 510.831435,114.564549 510.831435,255.387552 C510.831435,396.195498 396.248847,510.760047 255.418729,510.760047" fill="#454849" id="Fill-5"/><path d="M446.420329,255.384541 C446.420329,360.854992 360.901271,446.360587 255.414212,446.360587 C149.927153,446.360587 64.4080941,360.854992 64.4080941,255.384541 C64.4080941,149.914089 149.927153,64.4084937 255.414212,64.4084937 C360.901271,64.4084937 446.420329,149.914089 446.420329,255.384541" fill="#A4CD38" id="Fill-8"/><path d="M292.201412,68.0295705 C356.623059,98.7296777 401.242353,164.225247 401.242353,240.32056 C401.242353,345.806068 315.723294,431.296607 210.236235,431.296607 C197.647059,431.296607 185.359059,430.001752 173.447529,427.683058 C198.324706,439.532486 226.032941,446.353059 255.412706,446.353059 C360.899765,446.353059 446.418824,360.86252 446.418824,255.377012 C446.418824,162.508812 380.069647,85.1788702 292.201412,68.0295705" fill="#8FB83D" id="Fill-10"/><path d="M255.418729,79.4739803 C158.394729,79.4739803 79.4714353,158.384849 79.4714353,255.393574 C79.4714353,352.387243 158.394729,431.298112 255.418729,431.298112 C352.427671,431.298112 431.366024,352.387243 431.366024,255.393574 C431.366024,158.384849 352.427671,79.4739803 255.418729,79.4739803 M255.418729,461.411018 C141.799906,461.411018 49.3537882,368.994511 49.3537882,255.393574 C49.3537882,141.792638 141.799906,49.3610748 255.418729,49.3610748 C369.037553,49.3610748 461.483671,141.792638 461.483671,255.393574 C461.483671,368.994511 369.037553,461.411018 255.418729,461.411018" fill="#454849" id="Fill-12"/><path d="M270.223059,357.601293 C270.223059,365.776947 263.597176,372.401786 255.420235,372.401786 C247.243294,372.401786 240.602353,365.776947 240.602353,357.601293 C240.602353,349.425639 247.243294,325.877347 255.420235,325.877347 C263.597176,325.877347 270.223059,349.425639 270.223059,357.601293" fill="#229857" id="Fill-14"/><path d="M240.608376,153.167788 C240.608376,144.992135 247.234259,138.367295 255.4112,138.367295 C263.588141,138.367295 270.229082,144.992135 270.229082,153.167788 C270.229082,161.343442 263.588141,184.891734 255.4112,184.891734 C247.234259,184.891734 240.608376,161.343442 240.608376,153.167788" fill="#229857" id="Fill-16"/><path d="M153.182871,270.189551 C145.005929,270.189551 138.380047,263.564711 138.380047,255.389058 C138.380047,247.213404 145.005929,240.573508 153.182871,240.573508 C161.359812,240.573508 184.911812,247.213404 184.911812,255.389058 C184.911812,263.564711 161.359812,270.189551 153.182871,270.189551" fill="#229857" id="Fill-18"/><path d="M357.648565,240.579531 C365.825506,240.579531 372.451388,247.20437 372.451388,255.380024 C372.451388,263.555677 365.825506,270.195573 357.648565,270.195573 C349.471624,270.195573 325.919624,263.555677 325.919624,255.380024 C325.919624,247.20437 349.471624,240.579531 357.648565,240.579531" fill="#229857" id="Fill-20"/><path d="M172.655435,193.574791 C166.872847,187.793113 166.872847,178.412943 172.655435,172.631265 C178.438024,166.849587 187.819671,166.849587 193.602259,172.631265 C199.384847,178.412943 211.341553,199.762993 205.558965,205.544671 C199.776376,211.326348 178.438024,199.356469 172.655435,193.574791" fill="#229857" id="Fill-22"/><path d="M338.176,317.19429 C343.958588,322.975968 343.958588,332.356138 338.176,338.137816 C332.393412,343.919494 323.011765,343.919494 317.229176,338.137816 C311.446588,332.356138 299.489882,311.006088 305.272471,305.224411 C311.055059,299.442733 332.393412,311.412613 338.176,317.19429" fill="#229857" id="Fill-24"/><path d="M317.2352,172.637287 C323.017788,166.85561 332.399435,166.85561 338.182024,172.637287 C343.964612,178.418965 343.964612,187.799135 338.182024,193.580813 C332.399435,199.362491 311.046024,211.317315 305.263435,205.535637 C299.480847,199.753959 311.452612,178.418965 317.2352,172.637287" fill="#229857" id="Fill-26"/><path d="M193.596235,338.131794 C187.813647,343.913472 178.432,343.913472 172.649412,338.131794 C166.866824,332.350116 166.866824,322.969946 172.649412,317.188268 C178.432,311.40659 199.785412,299.451767 205.568,305.233444 C211.350588,311.015122 199.378824,332.350116 193.596235,338.131794" fill="#229857" id="Fill-28"/><path d="M105.735529,245.727332 C105.223529,245.727332 104.711529,245.697219 104.199529,245.621937 C98.0103529,244.793832 93.6884706,239.102493 94.5317647,232.899234 C99.2301176,198.389844 114.484706,166.771293 138.624,141.431283 C142.930824,136.929404 150.083765,136.763783 154.586353,141.054872 C159.104,145.361018 159.269647,152.512833 154.977882,157.014712 C134.121412,178.891738 120.975059,206.17403 116.909176,235.97075 C116.141176,241.631977 111.292235,245.727332 105.735529,245.727332" fill="#FEFEFE" id="Fill-30"/><path d="M182.485835,118.245852 C188.705129,123.51561 189.488188,132.835555 184.202541,139.05387 C178.931953,145.287241 169.610541,146.05512 163.391247,140.785362 C157.171953,135.515603 156.388894,126.195659 161.674541,119.962287 C166.945129,113.743972 176.266541,112.976093 182.485835,118.245852" fill="#FEFEFE" id="Fill-32"/></g></g></g></svg>